<svg xmlns="http://www.w3.org/2000/svg" xmlns:xlink="http://www.w3.org/1999/xlink" viewBox="0 0 128 70">
  <g fill="none" fill-rule="evenodd">
    <path transform="translate(76 17)"  d="M8.4 1.5A4.6 4.6 0 101.9 8a4.6 4.6 0 006.5-6.5" />
    <path transform="translate(58)"  d="M8.6 37a8.3 8.3 0 010-11.1 4.9 4.9 0 000-6.5 8.3 8.3 0 010-11.1 4.9 4.9 0 00-.1-6.6 4.5 4.5 0 00-6.5 0 4.9 4.9 0 00-.1 6.6c2.8 3 2.8 8 0 11a4.9 4.9 0 000 6.6c2.8 3.1 2.8 8 0 11.1a4.9 4.9 0 000 6.6 4.5 4.5 0 006.6 0 4.9 4.9 0 000-6.6z" />
    <path  d="M75.8 28a8.4 8.4 0 010-11 4.9 4.9 0 00-.1-6.6 4.4 4.4 0 00-6.4 0 4.9 4.9 0 000 6.6c2.7 3 2.7 8 0 11a4.9 4.9 0 000 6.6 4.4 4.4 0 006.4 0 4.9 4.9 0 000-6.6zM57.8 28a8.4 8.4 0 010-11 4.9 4.9 0 00-.1-6.6 4.4 4.4 0 00-6.4 0 4.9 4.9 0 000 6.6c2.7 3 2.7 8 0 11a4.9 4.9 0 000 6.6 4.4 4.4 0 006.4 0 4.9 4.9 0 000-6.6"/>
    <path transform="translate(41 17)"  d="M8.4 1.5c-1.9-1.8-5-1.8-7 0C-.5 3.3-.5 6.2 1.4 8c2 1.8 5.1 1.8 7 0 2-1.8 2-4.7 0-6.5" />
    <path transform="translate(0 56)"  d="M17.4 9.7c.5 0 1-.5 1-1 0-.6-.5-1-1-1H2.6V9c0 .4.3.7.8.7h14zM1.3.1h16c2 0 3.6 1.7 3.6 3.8 0 1-.3 1.8-.8 2.4.5.6.8 1.5.8 2.4 0 2-1.6 3.7-3.6 3.7h-14C1.7 12.4 0 11 0 8.7V6.2c0-1 .5-1.3 1.7-1.3h15.7c.6 0 1-.4 1-1s-.5-1-1-1H1.3C.6 2.8 0 2.1 0 1.4S.6 0 1.3 0z" />
    <path transform="translate(23 56)"  d="M1.9 12.4c-.8 0-1.5-.6-1.5-1.3V1.5C.4.7 1.1 0 2 0c.7 0 1.4.6 1.4 1.4V11c0 .7-.7 1.3-1.4 1.3" />
    <path transform="translate(29 56)"  d="M20.3 6.3c0-1.4-.5-3.5-3-3.5H6.2c-2.5 0-3 2.1-3 3.5 0 1.3.5 3.4 3 3.4h11c2.6 0 3.1-2 3.1-3.4m-2.5 6.1H5.4C2.4 12.3.6 9.1.6 6.3.6 3.4 2.5 0 5.6 0h12.5c3 .2 4.8 3.4 4.8 6.2 0 2.8-2 6.1-5 6.1" />
    <path transform="translate(54 56)"  d="M.4 8.7V1.5C.4.7 1 0 1.7 0 2.4.1 3 .7 3 1.5v7.2c0 .5.5 1 1 1h16.3c.7 0 1.3.6 1.3 1.4 0 .7-.6 1.3-1.3 1.3H4c-2 0-3.7-1.6-3.7-3.7" />
    <path transform="translate(78 56)"  d="M1.4 12.4c-.7 0-1.3-.6-1.3-1.3V1.5C0 .7.7 0 1.4 0c.7 0 1.3.6 1.3 1.4V11c0 .7-.6 1.3-1.3 1.3" />
    <path transform="translate(83 57)"  d="M17.5.6c.2-.3.6-.5 1-.5.7 0 1.3.6 1.3 1.3 0 .3 0 .6-.3.8L13 10.9c-.7.8-1.7 1.4-2.9 1.4-1 0-2-.5-2.7-1.3L.6 2.3c-.2-.2-.4-.6-.4-.9A1.3 1.3 0 012.6.6L9 9c.2.3.6.7 1 .7s.8-.4 1-.7L17.6.6z" />
    <path transform="translate(105 56)"  d="M3.7 12.4C2 12.4.3 11 .3 8.7V6.2c0-1 .6-1.3 1.8-1.3h18.4c.7 0 1.3.6 1.3 1.4 0 .7-.6 1.3-1.3 1.3H3V9c0 .4.3.7.8.7h17.3c.7 0 1.3.6 1.3 1.4 0 .7-.6 1.3-1.3 1.3H3.7zM1.7.1H21c.7 0 1.3.6 1.3 1.4 0 .7-.6 1.3-1.3 1.3H1.6C1 2.8.3 2.2.3 1.5.3.7 1 0 1.6 0z" />
  </g>
</svg>
