<svg xmlns="http://www.w3.org/2000/svg" preserveAspectRatio="xMaxYMax slice" viewBox="0 0 1000 642.9">
  <path fill="#f25f4c" d="M500 143a71 71 0 0171-72l-71 72a71 71 0 0071-72"/>
  <path fill="#e53170" d="M821 107a36 36 0 0136 36l-36-36a36 36 0 0036 36"/>
  <path fill="#f25f4c" d="M929 71a71 71 0 0071 72V71"/>
  <path fill="#ff8906" d="M714 143a71 71 0 0072 71v-71"/>
  <path fill="#f25f4c" d="M214 214a71 71 0 0172 72l-72-72a71 71 0 0072 72"/>
  <path fill="#b300bb" d="M429 250a36 36 0 0135-36l-35 36a36 36 0 0035-36M464 250a36 36 0 0136-36v36"/>
  <path fill="#f25f4c" d="M500 214a71 71 0 0171 72l-71-72a71 71 0 0071 72"/>
  <path fill="#f25f4c" d="M571 250a36 36 0 0136 36l-36-36a36 36 0 0036 36"/>
  <path fill="#b300bb" d="M714 286a71 71 0 0172-72l-72 72a71 71 0 0072-72"/>
  <path fill="#ff8906" d="M0 357a36 36 0 0036-36H0"/>
  <path fill="#e53170" d="M357 286a71 71 0 0072 71v-71"/>
  <path fill="#f25f4c" d="M429 286a71 71 0 0171 71h-71"/>
  <path fill="#b300bb" d="M643 357a71 71 0 0071-71h-71"/>
  <path fill="#f25f4c" d="M714 321a36 36 0 0136-35v35"/>
  <path fill="#ff8906" d="M750 286a36 36 0 0136 35l-36-35a36 36 0 0036 35"/>
  <path fill="#b300bb" d="M750 357a36 36 0 0136-36l-36 36a36 36 0 0036-36"/>
  <path fill="#b300bb" d="M786 286a36 36 0 0135 35h-35M821 321a36 36 0 0036-35h-36M786 357a36 36 0 0135-36v36"/>
  <path fill="#b300bb" d="M821 321a36 36 0 0136 36h-36"/>
  <path fill="#b300bb" d="M964 286a36 36 0 0136 35l-36-35a36 36 0 0036 35"/>
  <path fill="#b300bb" d="M964 321a36 36 0 0036 36v-36M0 429a71 71 0 0171-72v72"/>
  <path fill="#b300bb" d="M71 357a36 36 0 0136 36H71"/>
  <path fill="#ff8906" d="M107 393a36 36 0 0136-36l-36 36a36 36 0 0036-36"/>
  <path fill="#e53170" d="M179 357a36 36 0 0135 36h-35"/>
  <path fill="#ff8906" d="M250 357a36 36 0 0136 36l-36-36a36 36 0 0036 36"/>
  <path fill="#e53170" d="M250 393a36 36 0 0036 36v-36"/>
  <path fill="#b300bb" d="M286 357a36 36 0 0035 36v-36"/>
  <path fill="#f25f4c" d="M321 393a36 36 0 0036 36v-36"/>
  <path fill="#f25f4c" d="M464 393a36 36 0 0136-36l-36 36a36 36 0 0036-36"/>
  <path fill="#ff8906" d="M464 393a36 36 0 0136 36h-36"/>
  <path fill="#b300bb" d="M536 393a36 36 0 0135-36v36"/>
  <path fill="#e53170" d="M643 429a71 71 0 0071-72h-71"/>
  <path fill="#ff8906" d="M786 357a36 36 0 0035 36v-36"/>
  <path fill="#b300bb" d="M929 393a36 36 0 0135-36l-35 36a36 36 0 0035-36M964 393a36 36 0 0136-36l-36 36a36 36 0 0036-36"/>
  <path fill="#ff8906" d="M929 393a36 36 0 0135 36h-35"/>
  <path fill="#e53170" d="M964 429a36 36 0 0136-36l-36 36a36 36 0 0036-36"/>
  <path fill="#ff8906" d="M71 500a71 71 0 0072-71H71"/>
  <path fill="#f25f4c" d="M214 429a36 36 0 0036 35v-35"/>
  <path fill="#ff8906" d="M250 429a36 36 0 0136 35h-36M214 464a36 36 0 0136 36h-36"/>
  <path fill="#f25f4c" d="M250 500a36 36 0 0136-36v36"/>
  <path fill="#ff8906" d="M357 429a36 36 0 0036 35v-35"/>
  <path fill="#f25f4c" d="M429 429a71 71 0 0171 71l-71-71a71 71 0 0071 71"/>
  <path fill="#ff8906" d="M500 429a36 36 0 0036 35v-35"/>
  <path fill="#b300bb" d="M536 464a36 36 0 0135-35v35"/>
  <path fill="#ff8906" d="M536 464a36 36 0 0135 36l-35-36a36 36 0 0035 36"/>
  <path fill="#b300bb" d="M571 500a71 71 0 0172-71v71M643 500a71 71 0 0171-71l-71 71a71 71 0 0071-71"/>
  <path fill="#f25f4c" d="M714 429a71 71 0 0072 71v-71"/>
  <path fill="#e53170" d="M929 500a71 71 0 0171-71l-71 71a71 71 0 0071-71"/>
  <path fill="#b300bb" d="M0 500a71 71 0 0171 71H0"/>
  <path fill="#ff8906" d="M71 571a71 71 0 0172-71v71"/>
  <path fill="#b300bb" d="M143 536a36 36 0 0036-36h-36"/>
  <path fill="#f25f4c" d="M179 536a36 36 0 0135-36v36"/>
  <path fill="#ff8906" d="M143 536a36 36 0 0136 35l-36-35a36 36 0 0036 35M179 571a36 36 0 0135-35v35M214 500a71 71 0 0172 71h-72"/>
  <path fill="#e53170" d="M286 500a36 36 0 0035 36v-36M321 500a36 36 0 0036 36v-36"/>
  <path fill="#ff8906" d="M286 571a36 36 0 0135-35l-35 35a36 36 0 0035-35"/>
  <path fill="#b300bb" d="M357 536a36 36 0 0136-36l-36 36a36 36 0 0036-36"/>
  <path fill="#f25f4c" d="M393 536a36 36 0 0136-36l-36 36a36 36 0 0036-36"/>
  <path fill="#e53170" d="M357 536a36 36 0 0136 35h-36M393 536a36 36 0 0136 35l-36-35a36 36 0 0036 35"/>
  <path fill="#b300bb" d="M429 500a36 36 0 0135 36h-35"/>
  <path fill="#ff8906" d="M464 536a36 36 0 0036-36h-36M429 536a36 36 0 0135 35h-35"/>
  <path fill="#ff8906" d="M464 536a36 36 0 0136 35h-36M500 571a71 71 0 0171-71l-71 71a71 71 0 0071-71"/>
  <path fill="#f25f4c" d="M571 536a36 36 0 0136-36v36"/>
  <path fill="#e53170" d="M607 500a36 36 0 0136 36h-36"/>
  <path fill="#e53170" d="M607 536a36 36 0 0136 35l-36-35a36 36 0 0036 35"/>
  <path fill="#f25f4c" d="M643 500a71 71 0 0071 71v-71"/>
  <path fill="#e53170" d="M714 500a71 71 0 0172 71l-72-71a71 71 0 0072 71"/>
  <path fill="#ff8906" d="M786 536a36 36 0 0135-36l-35 36a36 36 0 0035-36"/>
  <path fill="#f25f4c" d="M821 500a36 36 0 0036 36v-36"/>
  <path fill="#ff8906" d="M786 536a36 36 0 0035 35v-35M821 536a36 36 0 0036 35v-35"/>
  <path fill="#ff8906" d="M857 536a36 36 0 0136-36l-36 36a36 36 0 0036-36"/>
  <path fill="#f25f4c" d="M893 536a36 36 0 0136-36v36"/>
  <path fill="#ff8906" d="M857 536a36 36 0 0136 35h-36"/>
  <path fill="#b300bb" d="M893 571a36 36 0 0136-35v35"/>
  <path fill="#f25f4c" d="M929 571a71 71 0 0171-71l-71 71a71 71 0 0071-71"/>
  <path fill="#e53170" d="M0 643a71 71 0 0171-72L0 643a71 71 0 0071-72"/>
  <path fill="#ff8906" d="M71 643a71 71 0 0172-72v72"/>
  <path fill="#ff8906" d="M143 643a71 71 0 0171-72l-71 72a71 71 0 0071-72"/>
  <path fill="#f25f4c" d="M214 643a71 71 0 0172-72v72"/>
  <path fill="#e53170" d="M286 571a36 36 0 0135 36h-35"/>
  <path fill="#b300bb" d="M321 571a36 36 0 0036 36v-36M286 643a36 36 0 0035-36h-35"/>
  <path fill="#f25f4c" d="M321 607a36 36 0 0136 36h-36"/>
  <path fill="#b300bb" d="M357 643a71 71 0 0072-72h-72"/>
  <path fill="#b300bb" d="M429 571a71 71 0 0071 72v-72"/>
  <path fill="#ff8906" d="M500 643a71 71 0 0171-72v72"/>
  <path fill="#b300bb" d="M571 571a71 71 0 0172 72h-72"/>
  <path fill="#ff8906" d="M643 643a71 71 0 0171-72v72"/>
  <path fill="#b300bb" d="M714 571a36 36 0 0136 36l-36-36a36 36 0 0036 36"/>
  <path fill="#e53170" d="M750 607a36 36 0 0136-36l-36 36a36 36 0 0036-36"/>
  <path fill="#b300bb" d="M714 607a36 36 0 0136 36l-36-36a36 36 0 0036 36"/>
  <path fill="#e53170" d="M750 643a36 36 0 0036-36h-36"/>
  <path fill="#ff8906" d="M786 643a71 71 0 0171-72v72"/>
  <path fill="#b300bb" d="M857 643a71 71 0 0172-72l-72 72a71 71 0 0072-72"/>
  <path fill="#ff8906" d="M929 607a36 36 0 0035-36h-35"/>
  <path fill="#e53170" d="M964 607a36 36 0 0036-36h-36"/>
  <path fill="#b300bb" d="M929 643a36 36 0 0135-36v36"/>
  <path fill="#f25f4c" d="M964 607a36 36 0 0136 36h-36"/>
</svg>
